<svg version="1.2" xmlns="http://www.w3.org/2000/svg" viewBox="0 0 1250 1250" width="1250" height="1250">
	<defs>
		<clipPath clipPathUnits="userSpaceOnUse" id="cp1">
			<path d="m196-1h857c108.8 0 197 88.2 197 197v857c0 108.8-88.2 197-197 197h-857c-108.8 0-197-88.2-197-197v-857c0-108.8 88.2-197 197-197z"/>
		</clipPath>
	</defs>
	<style>
		.s0 { fill: #27e8b8 } 
		.s1 { fill: #08221f } 
		.s2 { fill: #f8f8ee } 
	</style>
	<g id="_Artboards_">
	</g>
	<g id="Layer 1">
		<g id="&lt;Group&gt;">
			<g id="&lt;Group&gt;">
				<g clip-path="url(#cp1)">
					<path id="Shape 1" fill-rule="evenodd" class="s0" d="m196-1h857c108.8 0 197 88.2 197 197v857c0 108.8-88.2 197-197 197h-857c-108.8 0-197-88.2-197-197v-857c0-108.8 88.2-197 197-197z"/>
				</g>
			</g>
		</g>
		<g id="&lt;Group&gt;">
			<g id="&lt;Group&gt;">
				<path id="&lt;Compound Path&gt;" fill-rule="evenodd" class="s1" d="m482.21 180.73c2.69-19.78 20.74-36.03 40.82-35.87 64.55-0.16 129.12 0.02 193.69-0.07 11.14-0.55 22.96 1.1 32.01 8.16 10.31 8.43 18.59 19.19 28.85 27.63 14.15 1.27 29.23-2.49 42.56 3.85 6.91 2.97 12.27 8.38 17.43 13.7q54.04 54.06 108.1 108.11c9.78 8.49 17.55 20.31 17.39 33.7q0.01 101.26 0 202.52c0.18 21.16-18.25 39.72-39.21 40.69-0.85 9.49-4.42 18.8-10.99 25.8-7.21 8.07-17.68 12.66-28.36 13.58-0.89 9.52-4.5 18.89-11.11 25.92-7.24 7.97-17.64 12.59-28.3 13.44-0.94 15.77-11.32 30.55-26.11 36.3-7.38 3.15-15.52 3.09-23.37 2.96-9.73-0.05-19.47 0-29.2-0.02-1 15.03-10.26 29.29-24.1 35.53-9.31 4.69-19.99 3.96-30.09 3.95q-71.33 0-142.66 0c-0.86 9.6-4.53 19.08-11.26 26.11-7.21 7.86-17.52 12.4-28.08 13.25-0.98 11.79-6.58 23.27-16.06 30.51-6.65 5.36-15.02 8.09-23.46 8.88-0.07 12.95 0.09 25.91-0.04 38.87-0.21 10.91-5.44 21.18-13.11 28.76 12.89-0.8 26.96 0.67 36.96 9.72 11.62 11.12 22.8 22.74 34.26 34.06 5.88 6.12 12.87 11.59 16.41 19.54 1.86 4.4 4.54 8.76 4.32 13.72q-0.1 20.87-0.02 41.75c0.18 7.48-0.13 15.21-3.26 22.15-5.93 14.49-20.51 24.47-36.04 25.53-0.2 13.72 0.35 27.47-0.29 41.19-1.55 19.91-19.42 36.97-39.44 37.29-18.42 0.08-36.83-0.03-55.26 0.05-10.89 0.27-21.79-4.04-29.48-11.74-26.58-26.59-53.16-53.19-79.76-79.73-5.47-5.38-9.37-12.31-11.1-19.75-1.54-6.42-0.93-13.04-1.02-19.55 0.12-12.36-0.21-24.72 0.13-37.07 1.27-20.09 19.13-36.79 39.06-37.86 1.01-14.94 10.23-29.06 23.93-35.33 12.56-6.1 26.84-3.4 40.26-4.02-14.15-14.29-28.48-28.38-42.6-42.71-6.89-7.43-10.72-17.55-10.69-27.67-0.05-39.68 0.03-79.38-0.03-119.07-0.28-7.96 1.22-16.06 5.2-23.03 6.7-12.45 20.09-20.48 34.09-21.48 0.25-13.94-0.46-27.91 0.37-41.83 1.76-19.69 19.37-35.88 38.98-36.91 0.88-12.69 7.57-24.65 18-31.98-7.82 1.96-15.91 1.25-23.86 1.39-11.4 0.55-22.97-3.68-31.02-11.81q-33.85-33.87-67.71-67.73c-5.33-5.6-11.29-10.64-16.1-16.68-5.5-7.32-8.28-16.51-8.04-25.62 0.12-41.17-0.08-82.36 0.09-123.53 0.71-20.54 18.79-37.96 39.14-38.98 0.92-14.67 9.86-28.52 23.13-34.96 8.27-4.36 17.83-4.61 26.98-4.3 1.04-19.99 17.77-37.91 37.93-39.16 13.71-0.36 27.43-0.01 41.14-0.15zm24.13 0.58c-1.6 5.71 0.68 12.59-3.61 17.41-4.83 5.74-12.98 5.71-19.84 5.69-12.96-0.01-25.92-0.08-38.87 0-9.95-0.07-18 9.57-17.14 19.28 0.86 8.41-4.5 17.02-12.77 19.27-7.53 1.67-15.34-0.06-22.93 1.05-8.51 1.47-15.03 9.81-14.41 18.44 0.58 6.98-2.32 14.4-8.58 18-6.18 4.29-14.3 0.96-20.78 4.4-6.12 2.9-10.26 9.52-9.95 16.32q0.03 57.37-0.01 114.74c0.1 5.12-0.67 10.65 2 15.31 3.12 6.09 9.95 9.86 16.78 9.43 7.18-0.58 14.78 2.61 18.23 9.15 4.07 6.36 0.54 14.58 4.47 21 3.31 6.3 10.5 9.75 17.49 9.34 7.49-0.33 15.86 1.41 22.54-2.95 5.58-3.5 8.6-10.18 8.08-16.69-0.49-7.2 3.13-14.65 9.76-17.85 5.87-3.39 13.06-0.66 19.1-3.49 6.06-2.71 10.45-8.95 10.53-15.65 0.26-15.03-0.14-30.08 0.15-45.09 0.31-7.94 6.88-15.05 14.7-16.18 4.45-0.7 9.17 0.21 13.43-1.59 6.51-2.56 11.13-9.24 11.05-16.25 0.14-14.73-0.12-29.46 0.09-44.18 0.55-9.83 8.02-20.75 18.73-20.6 13.88-0.06 27.78 0.01 41.67 0 7.14 0.31 14.09-4.16 16.86-10.72 2.82-5.87-0.23-13.14 3.71-18.62 3.73-5.28 10.68-6.53 16.73-6.44 13.93 0.06 27.85-0.04 41.77 0.03 6.73-0.1 13.15 4.05 16.04 10.09 3.23 6.13 0.19 13.7 3.8 19.75 3.15 6.31 10.26 10.04 17.26 9.45 7.04-0.5 14.34 2.83 17.77 9.16 2.77 4.4 1.95 9.75 2.47 14.68 0.73 7.94 7.66 14.79 15.63 15.41 4.9 0.41 10.26-0.25 14.61 2.56 6.36 3.48 9.52 10.89 8.98 17.95-0.51 7.03 3.41 14.08 9.79 17.16 5.88 3.2 13.03 0.54 19.02 3.43 6.39 2.83 10.72 9.62 10.47 16.64-0.02 14.38 0.04 28.77-0.03 43.15-0.03 8.11-6.51 15.59-14.49 16.87-4.16 0.55-8.43-0.04-12.49 1.19-6.88 2.18-12.18 8.9-12.24 16.2-0.19 14.94 0.15 29.88-0.13 44.81-0.24 9.09-8.45 17.01-17.57 16.84-53.65 0.06-107.28 0-160.92 0.03-6.88-0.2-13.65 3.84-16.52 10.11-2.93 5.53-0.66 12.11-2.93 17.81-2.51 6.53-9.11 11.43-16.18 11.34-14.37 0.1-28.76-0.12-43.15 0.07-9.18-0.34-17.83 7.33-18.11 16.58-0.27 7.6 0 15.22-0.09 22.84-7.75 0.09-15.51-0.23-23.25 0.1-8.87 0.52-16.21 8.67-16.17 17.5-0.16 14.36 0.02 28.73-0.04 43.11 0.28 7.06-4.29 13.76-10.68 16.56-6 2.74-13.15 0.06-18.96 3.43-5.8 2.9-9.71 9.17-9.62 15.67-0.08 40.23 0.01 80.48-0.05 120.71-0.27 5.15 1.49 10.44 5.23 14.09 5.3 5.51 13.67 6.09 20.78 4.67 7.74-1.8 13.75-9.31 13.48-17.32 0.03-13.4 0-26.82-0.03-40.23-0.34-6.14 1.58-12.63 6.54-16.55 4.09-3.8 9.83-4.18 15.13-4.14 8.95 0.24 17.23-7.34 17.65-16.29 0.3-5.11-0.16-10.71 3.09-15.05 3.79-6.05 11.09-8.56 17.97-8.07 7.08 0.4 14.02-3.93 16.86-10.4 2.79-5.75 0.33-12.51 3.07-18.26 2.7-6.14 9.04-10.55 15.81-10.56 53.6-0.06 107.21 0 160.83-0.03 7 0.34 13.86-3.77 16.91-10.05 3.11-5.89 0.45-12.98 3.37-18.92 2.89-6.53 9.87-10.74 16.98-10.49 14.4-0.1 28.82 0.08 43.24-0.04 8.53-0.11 16.28-7.45 16.74-15.98 0.31-4.98-0.18-10.39 2.77-14.72 3.54-6.15 10.81-9.15 17.72-8.58 7.09 0.42 14.29-3.53 17.3-10.04 3.29-6.21 0.24-13.84 3.88-19.91 3.27-6.36 10.48-9.91 17.52-9.45 6.58 0.49 13.41-2.43 16.91-8.16 2.95-4.11 2.75-9.34 2.93-14.15 0.02-8.56 7.4-16.33 15.92-16.85 4.55-0.4 9.46 0.27 13.6-2.11 6.26-3.03 10-9.92 9.8-16.77 0.06-66.03 0.03-132.05 0.02-198.08 0.36-6.83-2.94-13.86-9.04-17.22-4.35-2.72-9.65-2.28-14.54-2.6-8.16-0.45-15.19-7.73-15.7-15.82-0.36-4.83 0.21-10.06-2.52-14.35-3.41-6.12-10.48-9.51-17.39-8.98-7.15 0.57-14.48-3.17-17.67-9.68-3.29-5.85-0.62-12.99-3.44-18.96-2.7-6.27-9.21-10.8-16.09-10.62-14.43-0.1-28.88 0.09-43.31-0.06-5.77-0.07-12.32-1.53-15.72-6.66-3.78-5.51-0.68-12.76-3.66-18.57-2.9-6.9-10.38-11.08-17.74-10.67-66.04 0.02-132.09-0.01-198.12 0.02-8.12-0.46-16.1 4.97-18.28 12.85zm35.43 176.11c-13.01 4.29-15.73 22.73-7.48 32.5 5.81 6.83 16.14 7.44 24.14 4.7 14.09-5.54 15.09-28.22 2.27-35.68-5.66-3.31-12.78-3.04-18.93-1.52zm136.87 26.76c-11.25 4.78-13.63 20.29-7.69 29.99 5.47 8.72 17.73 9.96 26.57 6.3 14.11-6.54 13.72-30.63-0.85-36.41-5.73-1.98-12.36-1.99-18.03 0.12zm-80.41 29.66c-8.37 2.43-17.05 4.29-24.8 8.35-2.16 4.13 0.85 8.58 2.8 12.19 6.78 10.4 13.2 21.18 21.91 30.12 2.51 2.48 5.99 5.55 9.74 3.53 9.21-3.61 17.48-9.19 25.82-14.44 5.31-3.76 11.27-7.1 15.13-12.49 1.07-4.61-2.89-8.09-6-10.74-7.57-6.05-15.58-11.59-24.1-16.19-6.3-3.7-13.87-2.04-20.5-0.33zm-208.54 497.51c-7.99 2.11-13.57 10.22-12.92 18.42 0.7 7.66-3.33 15.7-10.6 18.71-5.72 2.8-12.45 0.37-18.19 3.08-6.64 2.82-10.84 9.87-10.66 17.01-0.08 13.84-0.05 27.68-0.02 41.53-0.15 6.12 2.59 12.35 7.78 15.81 4.03 3.06 9.23 3.12 14.07 3.18 6.66-0.07 13.04 4.07 15.85 10.07 3.11 5.89 0.42 12.99 3.38 18.93 2.88 6.33 9.65 10.51 16.59 10.36 17.91 0.06 35.81 0.1 53.72-0.03 9.51 0.2 18-8.32 17.78-17.83 0.13-14.51-0.07-29.02 0.06-43.51-0.04-7.88 5.93-15.16 13.55-16.89 4.99-0.94 10.36 0.18 15.11-2 6.43-2.8 10.9-9.61 10.6-16.65 0.03-12.93-0.06-25.86 0.03-38.79 0-4.05 0.12-8.32-1.77-12.02-2.93-6.24-9.7-10.25-16.55-10.1-29.34-0.13-58.67 0.03-88-0.07-3.29 0.03-6.63-0.06-9.81 0.79z"/>
			</g>
		</g>
		<g id="&lt;Group&gt;">
			<path id="&lt;Path&gt;" class="s2" d="m506.34 181.31c2.18-7.88 10.16-13.31 18.28-12.85 66.03-0.03 132.08 0 198.12-0.02 7.36-0.41 14.84 3.77 17.74 10.67 2.98 5.81-0.12 13.06 3.66 18.57 3.4 5.13 9.95 6.59 15.72 6.66 14.43 0.15 28.88-0.04 43.31 0.06 6.88-0.18 13.39 4.35 16.09 10.62 2.82 5.97 0.15 13.11 3.44 18.96 3.19 6.51 10.52 10.25 17.67 9.68 6.91-0.53 13.98 2.86 17.39 8.98 2.73 4.29 2.16 9.52 2.52 14.35 0.51 8.09 7.54 15.37 15.7 15.82 4.89 0.32 10.19-0.12 14.54 2.6 6.1 3.36 9.4 10.39 9.04 17.22 0.01 66.03 0.04 132.05-0.02 198.08 0.2 6.85-3.54 13.74-9.8 16.77-4.14 2.38-9.05 1.71-13.6 2.11-8.52 0.52-15.9 8.29-15.92 16.85-0.18 4.81 0.02 10.04-2.93 14.15-3.5 5.73-10.33 8.65-16.91 8.16-7.04-0.46-14.25 3.09-17.52 9.45-3.64 6.07-0.59 13.7-3.88 19.91-3.01 6.51-10.21 10.46-17.3 10.04-6.91-0.57-14.18 2.43-17.72 8.58-2.95 4.33-2.46 9.74-2.77 14.72-0.46 8.53-8.21 15.87-16.74 15.98-14.42 0.12-28.84-0.06-43.24 0.04-7.11-0.25-14.09 3.96-16.98 10.49-2.92 5.94-0.26 13.03-3.37 18.92-3.05 6.28-9.91 10.39-16.91 10.05-53.62 0.03-107.23-0.03-160.83 0.03-6.77 0.01-13.11 4.42-15.81 10.56-2.74 5.75-0.28 12.51-3.07 18.26-2.84 6.47-9.78 10.8-16.86 10.4-6.88-0.49-14.18 2.02-17.97 8.07-3.25 4.34-2.79 9.94-3.09 15.05-0.42 8.95-8.7 16.53-17.65 16.29-5.3-0.04-11.04 0.34-15.13 4.14-4.96 3.92-6.88 10.41-6.54 16.55 0.03 13.41 0.06 26.83 0.03 40.23 0.27 8.01-5.74 15.52-13.48 17.32-7.11 1.42-15.48 0.84-20.78-4.67-3.74-3.65-5.5-8.94-5.23-14.09 0.06-40.23-0.03-80.48 0.05-120.71-0.09-6.5 3.82-12.77 9.62-15.67 5.81-3.37 12.96-0.69 18.96-3.43 6.39-2.8 10.96-9.5 10.68-16.56 0.06-14.38-0.12-28.75 0.04-43.11-0.04-8.83 7.3-16.98 16.17-17.5 7.74-0.33 15.5-0.01 23.25-0.1 0.09-7.62-0.18-15.24 0.09-22.84 0.28-9.25 8.93-16.92 18.11-16.58 14.39-0.19 28.78 0.03 43.15-0.07 7.07 0.09 13.67-4.81 16.18-11.34 2.27-5.7 0-12.28 2.93-17.81 2.87-6.27 9.64-10.31 16.52-10.11 53.64-0.03 107.27 0.03 160.92-0.03 9.12 0.17 17.33-7.75 17.57-16.84 0.28-14.93-0.06-29.87 0.13-44.81 0.06-7.3 5.36-14.02 12.24-16.2 4.06-1.23 8.33-0.64 12.49-1.19 7.98-1.28 14.46-8.76 14.49-16.87 0.07-14.38 0.01-28.77 0.03-43.15 0.25-7.02-4.08-13.81-10.47-16.64-5.99-2.89-13.14-0.23-19.02-3.43-6.38-3.08-10.3-10.13-9.79-17.16 0.54-7.06-2.62-14.47-8.98-17.95-4.35-2.81-9.71-2.15-14.61-2.56-7.97-0.62-14.9-7.47-15.63-15.41-0.52-4.93 0.3-10.28-2.47-14.68-3.43-6.33-10.73-9.66-17.77-9.16-7 0.59-14.11-3.14-17.26-9.45-3.61-6.05-0.57-13.62-3.8-19.75-2.89-6.04-9.31-10.19-16.04-10.09-13.92-0.07-27.84 0.03-41.77-0.03-6.05-0.09-13 1.16-16.73 6.44-3.94 5.48-0.89 12.75-3.71 18.62-2.77 6.56-9.72 11.03-16.86 10.72-13.89 0.01-27.79-0.06-41.67 0-10.71-0.15-18.18 10.77-18.73 20.6-0.21 14.72 0.05 29.45-0.09 44.18 0.08 7.01-4.54 13.69-11.05 16.25-4.26 1.8-8.98 0.89-13.43 1.59-7.82 1.13-14.39 8.24-14.7 16.18-0.29 15.01 0.11 30.06-0.15 45.09-0.08 6.7-4.47 12.94-10.53 15.65-6.04 2.83-13.23 0.1-19.1 3.49-6.63 3.2-10.25 10.65-9.76 17.85 0.52 6.51-2.5 13.19-8.08 16.69-6.68 4.36-15.05 2.62-22.54 2.95-6.99 0.41-14.18-3.04-17.49-9.34-3.93-6.42-0.4-14.64-4.47-21-3.45-6.54-11.05-9.73-18.23-9.15-6.83 0.43-13.66-3.34-16.78-9.43-2.67-4.66-1.9-10.19-2-15.31q0.04-57.37 0.01-114.74c-0.31-6.8 3.83-13.42 9.95-16.32 6.48-3.44 14.6-0.11 20.78-4.4 6.26-3.6 9.16-11.02 8.58-18-0.62-8.63 5.9-16.97 14.41-18.44 7.59-1.11 15.4 0.62 22.93-1.05 8.27-2.25 13.63-10.86 12.77-19.27-0.86-9.71 7.19-19.35 17.14-19.28 12.95-0.08 25.91-0.01 38.87 0 6.86 0.02 15.01 0.05 19.84-5.69 4.29-4.82 2.01-11.7 3.61-17.41z"/>
			<path id="&lt;Path&gt;" class="s2" d="m541.77 357.42c6.15-1.52 13.27-1.79 18.93 1.52 12.82 7.46 11.82 30.14-2.27 35.68-8 2.74-18.33 2.13-24.14-4.7-8.25-9.77-5.53-28.21 7.48-32.5z"/>
			<path id="&lt;Path&gt;" class="s2" d="m678.64 384.18c5.67-2.11 12.3-2.1 18.03-0.12 14.57 5.78 14.96 29.87 0.85 36.41-8.84 3.66-21.1 2.42-26.57-6.3-5.94-9.7-3.56-25.21 7.69-29.99z"/>
			<path id="&lt;Path&gt;" class="s2" d="m598.23 413.84c6.63-1.71 14.2-3.37 20.5 0.33 8.52 4.6 16.53 10.14 24.1 16.19 3.11 2.65 7.07 6.13 6 10.74-3.86 5.39-9.82 8.73-15.13 12.49-8.34 5.25-16.61 10.83-25.82 14.44-3.75 2.02-7.23-1.05-9.74-3.53-8.71-8.94-15.13-19.72-21.91-30.12-1.95-3.61-4.96-8.06-2.8-12.19 7.75-4.06 16.43-5.92 24.8-8.35z"/>
			<path id="&lt;Path&gt;" class="s2" d="m389.69 911.35c3.18-0.85 6.52-0.76 9.81-0.79 29.33 0.1 58.66-0.06 88 0.07 6.85-0.15 13.62 3.86 16.55 10.1 1.89 3.7 1.77 7.97 1.77 12.02-0.09 12.93 0 25.86-0.03 38.79 0.3 7.04-4.17 13.85-10.6 16.65-4.75 2.18-10.12 1.06-15.11 2-7.62 1.73-13.59 9.01-13.55 16.89-0.13 14.49 0.07 29-0.06 43.51 0.22 9.51-8.27 18.03-17.78 17.83-17.91 0.13-35.81 0.09-53.72 0.03-6.94 0.15-13.71-4.03-16.59-10.36-2.96-5.94-0.27-13.04-3.38-18.93-2.81-6-9.19-10.14-15.85-10.07-4.84-0.06-10.04-0.12-14.07-3.18-5.19-3.46-7.93-9.69-7.78-15.81-0.03-13.85-0.06-27.69 0.02-41.53-0.18-7.14 4.02-14.19 10.66-17.01 5.74-2.71 12.47-0.28 18.19-3.08 7.27-3.01 11.3-11.05 10.6-18.71-0.65-8.2 4.93-16.31 12.92-18.42z"/>
		</g>
	</g>
</svg>